<svg width="831" height="830" viewBox="0 0 831 830" fill="none" xmlns="http://www.w3.org/2000/svg">
<path opacity="0.07" d="M755.2 350C755.2 354.5 755.1 359 754.8 363.2C797.8 395.9 830.9 466 830.9 527.7C830.9 594.9 791.6 626.6 743.1 598.6C743 598.5 742.9 598.5 742.8 598.4L438.1 422.7C438 422.6 437.9 422.6 437.7 422.5C383.2 391 339 304.3 339 228.8C339 158.1 377.8 122.2 427.5 143.9C433.6 95.4001 466.1 74.5001 505.3 97.2001C524.1 108.1 541.4 127.2 554.9 150.2C574.5 121.1 607.9 113.7 645.7 135.5C706.2 170.3 755.2 266.4 755.2 350Z" fill="url(#paint0_linear_291_5504)"/>
<path opacity="0.4" d="M705.2 398C705.2 402.5 705.1 407 704.8 411.2C747.8 443.9 780.9 514 780.9 575.7C780.9 642.9 741.6 674.6 693.1 646.6C693 646.5 692.9 646.5 692.8 646.4L388.1 470.7C388 470.6 387.9 470.6 387.7 470.5C333.2 439 289 352.3 289 276.8C289 206.1 327.8 170.2 377.5 191.9C383.6 143.4 416.1 122.5 455.3 145.2C474.1 156.1 491.4 175.2 504.9 198.2C524.5 169.1 557.9 161.7 595.7 183.5C656.2 218.3 705.2 314.4 705.2 398Z" fill="url(#paint1_linear_291_5504)"/>
<path opacity="0.2" d="M222.8 483.6L176.4 456.8V441.1L222.8 467.9C226.6 470.1 232.1 474.5 236.8 481.3C241.9 488.6 245.5 497.8 245.5 507.8C245.5 518.8 242.7 525.1 237.3 526.9C232.3 528.6 226.4 525.7 222.7 523.6L203.6 512.6L203.5 512.5C201.9 511.5 199.3 510.6 197.2 511.2C195.5 511.7 193.6 513.4 193.6 519.5C193.6 525.6 195.5 529.4 197.1 531.6C199.1 534.4 201.7 536.4 203.3 537.2L203.5 537.3L261.8 571V586.7L203.8 553.2C199.8 551.1 194.1 546.7 189.1 539.7C183.7 532.1 179.9 522.4 180 511.6C180 500.9 183.7 495.4 189.1 493.9C194.1 492.5 199.8 494.5 203.8 497L222.7 507.9C225.4 509.5 227.5 510.2 228.8 509.7C229.8 509.4 231.8 507.9 231.8 499.9C231.8 494.8 230.1 491.4 228.6 489.1C226.8 486.5 224.3 484.5 222.8 483.6Z" fill="white"/>
<path d="M186.4 452.9C186.4 465.8 178.8 471.9 169.5 466.6C160.2 461.2 152.6 446.4 152.6 433.4C152.6 420.5 160.2 414.4 169.5 419.7C178.8 425.1 186.4 440 186.4 452.9Z" fill="#7FF8E2"/>
<path d="M285.4 591.9C285.4 604.8 277.8 610.9 268.5 605.6C259.2 600.2 251.6 585.4 251.6 572.4C251.6 559.5 259.2 553.4 268.5 558.7C277.8 564.1 285.4 579 285.4 591.9Z" fill="#7FF8E2"/>
<path opacity="0.07" d="M365.3 259.7L665.2 432.8V591.5L365.2 418.4L365.3 259.7Z" fill="url(#paint2_linear_291_5504)"/>
<path opacity="0.3" d="M325.2 279.7L625.1 452.8V611.5L325.2 438.4V279.7Z" fill="url(#paint3_linear_291_5504)"/>
<path d="M352.1 374.2C352.1 387 359.7 401.7 369 407.1C378.3 412.5 385.9 406.5 385.9 393.7C385.9 380.9 378.3 366.2 369 360.8C359.7 355.4 352.1 361.4 352.1 374.2Z" fill="#7FF8E2"/>
<path opacity="0.15" d="M394.4 398.9C394.4 404.8 397.9 411.7 402.3 414.2C406.6 416.7 410.1 413.9 410.1 408C410.1 402.1 406.6 395.2 402.2 392.7C397.9 390.2 394.4 393 394.4 398.9Z" fill="white"/>
<path opacity="0.15" d="M418.5 412.8C418.5 418.7 422 425.6 426.4 428.1C430.7 430.6 434.2 427.8 434.2 421.9C434.2 416 430.7 409.1 426.3 406.6C422 404.1 418.5 406.9 418.5 412.8Z" fill="white"/>
<path opacity="0.15" d="M549.4 439.8V530.1L537.6 523.3V433L549.4 439.8Z" fill="white"/>
<path opacity="0.15" d="M575.2 454.8V545.1L563.4 538.3V448L575.2 454.8Z" fill="white"/>
<path opacity="0.15" d="M601.1 469.8V560.1L589.3 553.3V463L601.1 469.8Z" fill="white"/>
<path opacity="0.07" d="M365.2 476.6L665.1 649.7V808.4L365.2 635.3V476.6Z" fill="url(#paint4_linear_291_5504)"/>
<path opacity="0.3" d="M325.2 497.6L625.1 670.7V829.4L325.2 656.3V497.6Z" fill="url(#paint5_linear_291_5504)"/>
<path d="M352.1 592.1C352.1 604.9 359.7 619.6 369 625C378.3 630.4 385.9 624.4 385.9 611.6C385.9 598.8 378.3 584.1 369 578.7C359.7 573.3 352.1 579.3 352.1 592.1Z" fill="#7FF8E2"/>
<path opacity="0.15" d="M394.4 616.9C394.4 622.8 397.9 629.7 402.3 632.2C406.6 634.7 410.1 631.9 410.1 626C410.1 620.1 406.6 613.2 402.2 610.7C397.9 608.2 394.4 610.9 394.4 616.9Z" fill="white"/>
<path opacity="0.15" d="M418.4 630.8C418.4 636.7 421.9 643.6 426.3 646.1C430.6 648.6 434.1 645.8 434.1 639.9C434.1 634 430.6 627.1 426.2 624.6C421.9 622 418.4 624.8 418.4 630.8Z" fill="white"/>
<path opacity="0.15" d="M549.4 660.8V751.1L537.6 744.3V654L549.4 660.8Z" fill="white"/>
<path opacity="0.15" d="M575.2 675.8V766.1L563.4 759.3V669L575.2 675.8Z" fill="white"/>
<path opacity="0.15" d="M601.1 690.8V781.1L589.3 774.3V684L601.1 690.8Z" fill="white"/>
<path opacity="0.3" d="M58.9004 44.6001L245.8 152.5V498.8L58.9004 390.8V44.6001Z" fill="url(#paint6_linear_291_5504)"/>
<path d="M174.3 170C174.3 187.3 164.3 195.5 152 188.3C139.7 181.1 129.7 161.3 129.7 144C129.7 126.7 139.7 118.5 152 125.7C164.3 132.9 174.3 152.7 174.3 170Z" fill="#7FF8E2"/>
<path d="M152 202.2C132.1 190.6 115.7 201.5 112.8 226.5C112.3 230.8 115.6 236.6 119.6 238.9L184.5 276.8C188.5 279.1 191.8 277.3 191.3 272.3C188.3 243.8 171.8 213.8 152 202.2Z" fill="#7FF8E2"/>
<path opacity="0.15" d="M96.4004 269.2L207.8 333.5V347.1L96.4004 282.8V269.2Z" fill="white"/>
<path opacity="0.15" d="M107.7 302.7L196 353.6V367.2L107.7 316.3V302.7Z" fill="white"/>
<path d="M130.2 359.9L0.200195 284.8V323.5L130.2 398.6V359.9Z" fill="#7FF8E2"/>
<path opacity="0.2" d="M286.1 0.699951L313.9 55.2999C317.7 62.7999 317.1 70.2999 312.5 72.1C307.9 73.9 301.1 69.2 297.3 61.7L297 61V121.6C297 128.5 292.2 131.3 286.2 127.9C280.2 124.4 275.4 116.1 275.4 109.2V48.5999L275.1 48.9C271.3 52 264.4 48.7999 259.9 41.7C255.3 34.6 254.7 26.4 258.5 23.2999L286.1 0.699951Z" fill="url(#paint7_linear_291_5504)"/>
<path opacity="0.2" d="M286.1 806.9L258.3 752.3C254.5 744.8 255.1 737.3 259.7 735.5C264.3 733.7 271.1 738.4 274.9 745.9L275.2 746.6V686C275.2 679.1 280 676.3 286 679.7C292 683.2 296.8 691.5 296.8 698.4V759L297.1 758.7C300.9 755.6 307.8 758.8 312.3 765.9C316.9 773 317.5 781.2 313.7 784.3L286.1 806.9Z" fill="url(#paint8_linear_291_5504)"/>
<defs>
<linearGradient id="paint0_linear_291_5504" x1="813.011" y1="159.035" x2="503.583" y2="452.534" gradientUnits="userSpaceOnUse">
<stop stop-color="white"/>
<stop offset="1" stop-color="white" stop-opacity="0"/>
</linearGradient>
<linearGradient id="paint1_linear_291_5504" x1="763" y1="207.035" x2="453.573" y2="500.534" gradientUnits="userSpaceOnUse">
<stop stop-color="white"/>
<stop offset="1" stop-color="white" stop-opacity="0"/>
</linearGradient>
<linearGradient id="paint2_linear_291_5504" x1="509.07" y1="272.39" x2="520.244" y2="553.109" gradientUnits="userSpaceOnUse">
<stop stop-color="white"/>
<stop offset="1" stop-color="white" stop-opacity="0"/>
</linearGradient>
<linearGradient id="paint3_linear_291_5504" x1="469.067" y1="292.39" x2="480.241" y2="573.109" gradientUnits="userSpaceOnUse">
<stop stop-color="white"/>
<stop offset="1" stop-color="white" stop-opacity="0"/>
</linearGradient>
<linearGradient id="paint4_linear_291_5504" x1="509.048" y1="489.324" x2="520.222" y2="770.042" gradientUnits="userSpaceOnUse">
<stop stop-color="white"/>
<stop offset="1" stop-color="white" stop-opacity="0"/>
</linearGradient>
<linearGradient id="paint5_linear_291_5504" x1="469.046" y1="510.324" x2="480.22" y2="791.042" gradientUnits="userSpaceOnUse">
<stop stop-color="white"/>
<stop offset="1" stop-color="white" stop-opacity="0"/>
</linearGradient>
<linearGradient id="paint6_linear_291_5504" x1="265.831" y1="75.0355" x2="99.9203" y2="362.475" gradientUnits="userSpaceOnUse">
<stop stop-color="white"/>
<stop offset="1" stop-color="white" stop-opacity="0"/>
</linearGradient>
<linearGradient id="paint7_linear_291_5504" x1="305.883" y1="55.7758" x2="255.162" y2="84.0501" gradientUnits="userSpaceOnUse">
<stop stop-color="white"/>
<stop offset="1" stop-color="white" stop-opacity="0"/>
</linearGradient>
<linearGradient id="paint8_linear_291_5504" x1="266.264" y1="751.861" x2="316.985" y2="723.587" gradientUnits="userSpaceOnUse">
<stop stop-color="white"/>
<stop offset="1" stop-color="white" stop-opacity="0"/>
</linearGradient>
</defs>
</svg>
